<svg width="146" height="148" viewBox="0 0 146 148" fill="none" xmlns="http://www.w3.org/2000/svg">
<path d="M28.3098 3.55591C31.3366 3.55591 33.8293 6.04504 33.8293 9.06756V105.61C40.2391 109.166 44.5123 115.745 44.5123 123.568C44.5123 134.769 35.2537 144.014 24.0366 144.014C12.8195 144.014 3.56098 134.769 3.56098 123.568C3.56098 115.745 7.83416 108.989 14.2439 105.61V9.06756C14.2439 6.04504 16.7366 3.55591 19.7634 3.55591H28.3098ZM28.3098 0H19.7634C14.7781 0 10.6829 4.08929 10.6829 9.06756V103.655C4.09513 108.1 0 115.567 0 123.568C0 136.725 10.861 147.57 24.0366 147.57C37.2123 147.57 48.0732 136.725 48.0732 123.568C48.0732 115.567 43.9781 108.1 37.3903 103.655V9.06756C37.3903 4.08929 33.2952 0 28.3098 0Z" fill="#002F58"/>
<path d="M39.1697 121.079C39.1697 129.435 32.4038 136.191 24.0355 136.191C15.6672 136.191 8.90137 129.435 8.90137 121.079C8.90137 115.389 12.1063 110.411 16.7355 107.744V65.7843C16.7355 64.0063 18.1599 62.584 19.9404 62.584H27.9526C29.7331 62.584 31.1575 64.0063 31.1575 65.7843V107.744C35.9648 110.411 39.1697 115.389 39.1697 121.079Z" fill="#002F58"/>
<path d="M23.8576 141.525C33.691 141.525 41.6625 133.565 41.6625 123.746C41.6625 113.926 33.691 105.966 23.8576 105.966C14.0243 105.966 6.05273 113.926 6.05273 123.746C6.05273 133.565 14.0243 141.525 23.8576 141.525Z" fill="#002F58"/>
<path d="M36.4998 16.0016H52.5243C53.9486 16.0016 55.195 14.757 55.195 13.3347C55.195 11.9123 53.9486 10.6677 52.5243 10.6677H36.4998C35.0754 10.6677 33.8291 11.9123 33.8291 13.3347C33.8291 14.757 35.0754 16.0016 36.4998 16.0016Z" fill="#002F58"/>
<path d="M36.4998 26.6693H45.4023C46.8267 26.6693 48.073 25.4247 48.073 24.0024C48.073 22.58 46.8267 21.3354 45.4023 21.3354H36.4998C35.0754 21.3354 33.8291 22.58 33.8291 24.0024C33.8291 25.4247 35.0754 26.6693 36.4998 26.6693Z" fill="#002F58"/>
<path d="M36.4998 37.337H45.4023C46.8267 37.337 48.073 36.0925 48.073 34.6701C48.073 33.2477 46.8267 32.0032 45.4023 32.0032H36.4998C35.0754 32.0032 33.8291 33.2477 33.8291 34.6701C33.8291 36.0925 35.0754 37.337 36.4998 37.337Z" fill="#002F58"/>
<path d="M36.4998 48.0048H45.4023C46.8267 48.0048 48.073 46.7602 48.073 45.3378C48.073 43.9155 46.8267 42.6709 45.4023 42.6709H36.4998C35.0754 42.6709 33.8291 43.9155 33.8291 45.3378C33.8291 46.7602 35.0754 48.0048 36.4998 48.0048Z" fill="#002F58"/>
<path d="M36.4998 58.6725H52.5243C53.9486 58.6725 55.195 57.4279 55.195 56.0056C55.195 54.5832 53.9486 53.3386 52.5243 53.3386H36.4998C35.0754 53.3386 33.8291 54.5832 33.8291 56.0056C33.8291 57.4279 35.0754 58.6725 36.4998 58.6725Z" fill="#002F58"/>
<path d="M36.4998 69.3402H45.4023C46.8267 69.3402 48.073 68.0956 48.073 66.6733C48.073 65.2509 46.8267 64.0063 45.4023 64.0063H36.4998C35.0754 64.0063 33.8291 65.2509 33.8291 66.6733C33.8291 68.0956 35.0754 69.3402 36.4998 69.3402Z" fill="#002F58"/>
<path d="M36.4998 80.0079H45.4023C46.8267 80.0079 48.073 78.7634 48.073 77.341C48.073 75.9186 46.8267 74.6741 45.4023 74.6741H36.4998C35.0754 74.6741 33.8291 75.9186 33.8291 77.341C33.8291 78.7634 35.0754 80.0079 36.4998 80.0079Z" fill="#002F58"/>
<path d="M36.4998 90.6757H45.4023C46.8267 90.6757 48.073 89.4311 48.073 88.0087C48.073 86.5864 46.8267 85.3418 45.4023 85.3418H36.4998C35.0754 85.3418 33.8291 86.5864 33.8291 88.0087C33.8291 89.4311 35.0754 90.6757 36.4998 90.6757Z" fill="#002F58"/>
<path d="M36.4998 101.343H52.5243C53.9486 101.343 55.195 100.099 55.195 98.6765C55.195 97.2541 53.9486 96.0095 52.5243 96.0095H36.4998C35.0754 96.0095 33.8291 97.2541 33.8291 98.6765C33.8291 100.099 35.0754 101.343 36.4998 101.343Z" fill="#002F58"/>
<path d="M119.114 3.55591C122.141 3.55591 124.634 6.04504 124.634 9.06756V105.61C131.044 109.166 135.317 115.745 135.317 123.568C135.317 134.769 126.058 144.014 114.841 144.014C103.624 144.014 94.3657 134.769 94.3657 123.568C94.3657 115.745 98.6388 108.989 105.049 105.61V9.06756C105.049 6.04504 107.541 3.55591 110.568 3.55591H119.114ZM119.114 0H110.568C105.583 0 101.488 4.08929 101.488 9.06756V103.655C94.8998 108.1 90.8047 115.567 90.8047 123.568C90.8047 136.725 101.666 147.57 114.841 147.57C128.017 147.57 138.878 136.725 138.878 123.568C138.878 115.567 134.783 108.1 128.195 103.655V9.06756C128.195 4.08929 124.1 0 119.114 0Z" fill="#C43131"/>
<path d="M129.798 121.079C129.798 129.435 123.032 136.191 114.663 136.191C106.295 136.191 99.5293 129.435 99.5293 121.079C99.5293 115.389 102.734 110.411 107.363 107.744V65.7843C107.363 64.0063 108.788 62.584 110.568 62.584H118.581C120.361 62.584 121.785 64.0063 121.785 65.7843V107.744C126.771 110.411 129.798 115.389 129.798 121.079Z" fill="#CF2E2E"/>
<path d="M114.663 141.525C124.497 141.525 132.468 133.565 132.468 123.746C132.468 113.926 124.497 105.966 114.663 105.966C104.83 105.966 96.8584 113.926 96.8584 123.746C96.8584 133.565 104.83 141.525 114.663 141.525Z" fill="#CF2E2E"/>
<path d="M121.963 65.784H107.541V26.6691C107.541 24.8911 108.965 23.4688 110.746 23.4688H118.758C120.539 23.4688 121.963 24.8911 121.963 26.6691V65.784Z" fill="#CF2E2E"/>
<path d="M127.305 14.2235H143.329C144.753 14.2235 146 12.9789 146 11.5566C146 10.1342 144.753 8.88965 143.329 8.88965H127.305C125.88 8.88965 124.634 10.1342 124.634 11.5566C124.634 12.9789 125.88 14.2235 127.305 14.2235Z" fill="#C43131"/>
<path d="M127.305 24.8915H136.207C137.631 24.8915 138.878 23.6469 138.878 22.2245C138.878 20.8022 137.631 19.5576 136.207 19.5576H127.305C125.88 19.5576 124.634 20.8022 124.634 22.2245C124.634 23.6469 125.88 24.8915 127.305 24.8915Z" fill="#C43131"/>
<path d="M127.305 35.5592H136.207C137.631 35.5592 138.878 34.3146 138.878 32.8923C138.878 31.4699 137.631 30.2253 136.207 30.2253H127.305C125.88 30.2253 124.634 31.4699 124.634 32.8923C124.634 34.3146 125.88 35.5592 127.305 35.5592Z" fill="#C43131"/>
<path d="M127.305 46.2269H136.207C137.631 46.2269 138.878 44.9824 138.878 43.56C138.878 42.1376 137.631 40.8931 136.207 40.8931H127.305C125.88 40.8931 124.634 42.1376 124.634 43.56C124.634 44.9824 125.88 46.2269 127.305 46.2269Z" fill="#C43131"/>
<path d="M127.305 56.8944H143.329C144.753 56.8944 146 55.6498 146 54.2275C146 52.8051 144.753 51.5605 143.329 51.5605H127.305C125.88 51.5605 124.634 52.8051 124.634 54.2275C124.634 55.6498 125.88 56.8944 127.305 56.8944Z" fill="#C43131"/>
<path d="M127.305 67.5621H136.207C137.631 67.5621 138.878 66.3176 138.878 64.8952C138.878 63.4728 137.631 62.2283 136.207 62.2283H127.305C125.88 62.2283 124.634 63.4728 124.634 64.8952C124.634 66.3176 125.88 67.5621 127.305 67.5621Z" fill="#C43131"/>
<path d="M127.305 78.2299H136.207C137.631 78.2299 138.878 76.9853 138.878 75.5629C138.878 74.1406 137.631 72.896 136.207 72.896H127.305C125.88 72.896 124.634 74.1406 124.634 75.5629C124.634 76.9853 125.88 78.2299 127.305 78.2299Z" fill="#C43131"/>
<path d="M127.305 88.8976H136.207C137.631 88.8976 138.878 87.653 138.878 86.2307C138.878 84.8083 137.631 83.5637 136.207 83.5637H127.305C125.88 83.5637 124.634 84.8083 124.634 86.2307C124.634 87.653 125.88 88.8976 127.305 88.8976Z" fill="#C43131"/>
<path d="M127.305 99.5653H143.329C144.753 99.5653 146 98.3207 146 96.8984C146 95.476 144.753 94.2314 143.329 94.2314H127.305C125.88 94.2314 124.634 95.476 124.634 96.8984C124.634 98.3207 125.88 99.5653 127.305 99.5653Z" fill="#C43131"/>
</svg>
