<svg width="169" height="187" viewBox="0 0 169 187" fill="none" xmlns="http://www.w3.org/2000/svg">
<g clip-path="url(#clip0_218_338)">
<path d="M119.142 61.916C119.398 61.4723 123.207 55.3878 128.702 55.6021C134.769 55.8507 138.008 63.0458 138.511 64.2236C140.932 69.7629 138.917 72.7411 141.322 74.7215C144.614 77.2141 151.716 73.6223 155.318 70.9687C160.354 67.368 166.424 59.927 164.285 55.4375C163.466 53.7816 161.879 53.4571 149.696 49.9729C139.765 47.1976 138.878 46.6853 137.325 45.789C131.371 41.7597 131.331 36.7073 127.86 31.4495C120.698 20.8058 105.552 18.8659 99.9636 18.3017C77.3864 15.9167 61.3374 30.909 58.913 33.0593C63.5554 32.1896 69.7847 31.6444 77.3448 31.8676C86.8418 32.3216 94.9736 32.579 97.6505 37.6745C98.1534 38.8523 99.8839 42.5139 96.9625 49.1106C104.282 53.3364 111.823 57.6902 119.142 61.916Z" fill="#C43131"/>
<path d="M116.999 65.1161C109.68 60.8903 102.583 56.7925 95.2633 52.5667C75.3926 83.3983 55.1719 114.324 35.3012 145.155C34.9169 145.821 34.2076 148.074 35.1789 151.002C35.3663 151.701 36.3721 154.057 38.7775 156.037C45.2096 159.751 51.6417 163.465 58.0738 167.178C58.7392 167.562 61.2134 168.399 64.2343 167.777C64.9341 167.589 67.3834 166.932 69.2361 164.748C84.8927 131.483 100.771 98.3465 116.999 65.1161Z" fill="#C43131"/>
</g>
<defs>
<clipPath id="clip0_218_338">
<rect width="105.005" height="154.744" fill="white" transform="translate(78) rotate(30)"/>
</clipPath>
</defs>
</svg>
