<svg width="157" height="131" viewBox="0 0 157 131" fill="none" xmlns="http://www.w3.org/2000/svg">
<path d="M148.137 44.0878C145.886 49.002 135.757 69.6419 112.967 83.4018C78.7812 104.182 41.6415 94.0728 30.1056 90.1414C39.8126 80.4533 51.2078 75.9602 53.74 74.9774C49.5196 75.6794 43.7517 76.9431 37.2803 79.7512C33.3413 81.4361 30.1056 83.2614 27.292 85.0867C29.4022 55.882 39.2499 42.5433 48.1128 35.6633C61.6182 25.2732 75.4049 28.2218 102.978 21.6226C126.472 16.0063 144.761 7.16067 156.437 0.561523C157 8.98596 156.719 25.6944 148.137 44.0878Z" fill="#002F58" stroke="white" stroke-width="0.5" stroke-miterlimit="10"/>
<path d="M53.8807 74.9775C49.6603 75.6796 43.8923 76.9432 37.421 79.7514C27.292 84.104 20.8207 90.0011 18.7104 91.8264C6.89323 102.919 -3.51716 122.014 1.82872 128.332C3.37621 130.158 6.89323 131.842 15.8968 129.736C15.3341 124.682 15.3341 118.363 17.3036 111.483C24.197 86.6313 49.8009 76.522 53.8807 74.9775Z" fill="#002F58" stroke="white" stroke-width="0.5" stroke-miterlimit="10"/>
</svg>
