<svg width="40" height="31" viewBox="0 0 40 31" fill="none" xmlns="http://www.w3.org/2000/svg">
<path d="M20.2087 0C18.7503 2.26216 17.2503 4.52432 15.792 6.78649L19.9587 13.0284C20.0003 13.0703 20.042 13.1541 20.0837 13.1959C20.3337 13.573 20.5837 13.95 20.792 14.327C22.667 17.2595 24.5003 20.15 26.3753 23.0824H34.917C30.0003 15.3743 25.1253 7.66622 20.2087 0Z" fill="#C70000"/>
<path d="M35.7087 24.2974H14.2087L9.79199 31.0001H40.0003C38.5837 28.7798 37.167 26.5176 35.7087 24.2974Z" fill="#000061"/>
<path d="M15 8.04321C10 15.6675 5 23.3338 0 31H8.125L15 20.6108C16.375 18.4743 17.75 16.3797 19.125 14.2432L15 8.04321Z" fill="#000061"/>
</svg>
